<mxfile host="app.diagrams.net" modified="2022-01-14T09:11:44.687Z" agent="5.0 (X11; Linux x86_64) AppleWebKit/537.36 (KHTML, like Gecko) Chrome/97.0.4692.71 Safari/537.36" etag="65LPvgY3rIAErQdMf6zT" version="16.2.4" type="github">
  <diagram id="ipDr7uzduKr7puTwkg-T" name="Page-1">
    <mxGraphModel dx="1206" dy="557" grid="1" gridSize="10" guides="1" tooltips="1" connect="1" arrows="1" fold="1" page="1" pageScale="1" pageWidth="827" pageHeight="1169" math="0" shadow="0">
      <root>
        <mxCell id="0" />
        <mxCell id="1" parent="0" />
        <mxCell id="8_ftPmHAoHcBEok6sgNI-2" value="" style="whiteSpace=wrap;html=1;aspect=fixed;" vertex="1" parent="1">
          <mxGeometry x="110" y="50" width="590" height="590" as="geometry" />
        </mxCell>
        <mxCell id="8_ftPmHAoHcBEok6sgNI-3" value="&lt;font style=&quot;font-size: 48px&quot;&gt;class&amp;nbsp;&lt;/font&gt;" style="text;html=1;strokeColor=none;fillColor=none;align=center;verticalAlign=middle;whiteSpace=wrap;rounded=0;" vertex="1" parent="1">
          <mxGeometry x="140" y="60" width="110" height="30" as="geometry" />
        </mxCell>
        <mxCell id="8_ftPmHAoHcBEok6sgNI-4" value="constructor" style="rounded=1;whiteSpace=wrap;html=1;fontSize=48;" vertex="1" parent="1">
          <mxGeometry x="230" y="110" width="280" height="60" as="geometry" />
        </mxCell>
        <mxCell id="8_ftPmHAoHcBEok6sgNI-5" value="類的attribute直接使用：this.xxx" style="rounded=1;whiteSpace=wrap;html=1;fontSize=48;" vertex="1" parent="1">
          <mxGeometry x="180" y="200" width="420" height="120" as="geometry" />
        </mxCell>
      </root>
    </mxGraphModel>
  </diagram>
</mxfile>
